/* XPM */
static char * C:\Users\Andrew\Documents\Crypto\Fedora Icon 32_xpm[] = {
"32 32 185 2",
"  	c None",
". 	c #000000",
"+ 	c #090700",
"@ 	c #050400",
"# 	c #2A2204",
"$ 	c #A08112",
"% 	c #EBBE1C",
"& 	c #F7C81E",
"* 	c #F5C61D",
"= 	c #E3B81B",
"- 	c #CDA518",
"; 	c #A98914",
"> 	c #78620E",
", 	c #332906",
"' 	c #1E1803",
") 	c #A78713",
"! 	c #F3C51D",
"~ 	c #EEC01C",
"{ 	c #D6AD19",
"] 	c #947711",
"^ 	c #78610E",
"/ 	c #6F5A0C",
"( 	c #2D2405",
"_ 	c #070500",
": 	c #69550C",
"< 	c #E9BD1C",
"[ 	c #F1C31D",
"} 	c #DFB41A",
"| 	c #BB9716",
"1 	c #81690F",
"2 	c #997B12",
"3 	c #DAB01A",
"4 	c #F2C41D",
"5 	c #080600",
"6 	c #211B03",
"7 	c #9E8012",
"8 	c #F4C51D",
"9 	c #C19D16",
"0 	c #907410",
"a 	c #AE8C14",
"b 	c #B79416",
"c 	c #2C2305",
"d 	c #030200",
"e 	c #9C7F12",
"f 	c #CEA618",
"g 	c #C6A017",
"h 	c #A38412",
"i 	c #A48413",
"j 	c #F6C71D",
"k 	c #D0A919",
"l 	c #514209",
"m 	c #191402",
"n 	c #7A620E",
"o 	c #B99516",
"p 	c #A38313",
"q 	c #A48513",
"r 	c #D2AA18",
"s 	c #E6BA1B",
"t 	c #866C0F",
"u 	c #1B1503",
"v 	c #040300",
"w 	c #382D06",
"x 	c #7F670E",
"y 	c #D1A919",
"z 	c #F5C71D",
"A 	c #C9A217",
"B 	c #8C7110",
"C 	c #5A490A",
"D 	c #201A03",
"E 	c #020200",
"F 	c #151102",
"G 	c #77600E",
"H 	c #C19D17",
"I 	c #EFC11C",
"J 	c #927611",
"K 	c #D5AC19",
"L 	c #4B3D08",
"M 	c #090801",
"N 	c #9D8012",
"O 	c #E4B91B",
"P 	c #E9BD1B",
"Q 	c #9D7F12",
"R 	c #392E06",
"S 	c #483A08",
"T 	c #C5A017",
"U 	c #CAA418",
"V 	c #5C4A0A",
"W 	c #080701",
"X 	c #1B1502",
"Y 	c #AF8E15",
"Z 	c #DEB41A",
"` 	c #63500B",
" .	c #221B04",
"..	c #010100",
"+.	c #4C3E08",
"@.	c #D3AA19",
"#.	c #D3AB19",
"$.	c #2F2605",
"%.	c #937711",
"&.	c #937611",
"*.	c #7A630E",
"=.	c #E2B71B",
"-.	c #C29D17",
";.	c #6B560C",
">.	c #0A0801",
",.	c #100D01",
"'.	c #7E660E",
").	c #554509",
"!.	c #261F04",
"~.	c #E1B61B",
"{.	c #DCB21A",
"].	c #614E0B",
"^.	c #110E01",
"/.	c #4B3C08",
"(.	c #9C7E12",
"_.	c #CBA418",
":.	c #BF9A16",
"<.	c #8F7310",
"[.	c #483B08",
"}.	c #211A03",
"|.	c #0B0901",
"1.	c #0E0B01",
"2.	c #6E590D",
"3.	c #F3C41D",
"4.	c #4B3D09",
"5.	c #ECBF1C",
"6.	c #6F5A0D",
"7.	c #181302",
"8.	c #191403",
"9.	c #161202",
"0.	c #0E0C01",
"a.	c #241D04",
"b.	c #987B11",
"c.	c #E7BB1B",
"d.	c #141002",
"e.	c #4D3E08",
"f.	c #EDBF1C",
"g.	c #BC9816",
"h.	c #292104",
"i.	c #151101",
"j.	c #81680E",
"k.	c #EABD1C",
"l.	c #271F04",
"m.	c #E8BC1C",
"n.	c #F4C61D",
"o.	c #C49E17",
"p.	c #4E3F08",
"q.	c #0F0C01",
"r.	c #090701",
"s.	c #423508",
"t.	c #CAA417",
"u.	c #362C05",
"v.	c #020100",
"w.	c #BD9916",
"x.	c #F0C21C",
"y.	c #C7A117",
"z.	c #9F8112",
"A.	c #9B7E12",
"B.	c #B39115",
"C.	c #B29015",
"D.	c #4A3C08",
"E.	c #D8AF1A",
"F.	c #8A6F10",
"G.	c #231C03",
"H.	c #7C640E",
"I.	c #AD8C14",
"J.	c #5F4D0B",
"K.	c #A68614",
"L.	c #64510B",
"M.	c #312705",
"N.	c #77600D",
"O.	c #A58613",
"P.	c #C49F17",
"Q.	c #DBB11A",
"R.	c #8B7110",
"S.	c #55450A",
"T.	c #1B1603",
"U.	c #423507",
"V.	c #5C4A0B",
"W.	c #81680F",
"X.	c #6D580C",
"Y.	c #524209",
"Z.	c #2E2505",
"`.	c #070600",
" +	c #040400",
"                                                                ",
"                                                                ",
"                      . . . . . . . . . .                       ",
"                  . . . . . + @ . . . . . . .                   ",
"              . . . . # $ % & & * = - ; > , . . .               ",
"            . . . . ' ) * & & & ! ~ { ] ^ / ( . . .             ",
"          . . . . _ : < & & [ } | 1 2 3 & 4 ] 5 . . .           ",
"        . . . . . 6 7 & 8 } 9 0 a ! & & & & b c . . . .         ",
"        . . . . d , e f g h i = j & & & & & k l . . . .         ",
"      . . . . . m n o p q r 4 & & & & & & & s t u v . . .       ",
"      . . . 5 w x y z 8 z & & & & & & & & & [ A B C D E .       ",
"    . . . F G H I & & & & & & & & & & & & [ o J K } ) L M .     ",
"    . . D N O & & & & & & & & & & & & j P Q R S T & 8 U V W     ",
"    . X Y [ & [ Z = & & & & & & & & 8 H `  ...+.@.& & & #.$.    ",
"    . %.! & & s &.*.=.& & & & & * -.;.# >.. ,.'.I & & & j ).    ",
"    !.~.& & & {.].^./.(._.{ :.<.[.}.|.. . 1.2.{.j & & & 3.w .   ",
"    4.5.& & & ~.6.. @ ,.7.8.9.0.v . . ..a.b.c.z & & & & i d..   ",
"    e.f.& & & j g.h.. . . . . . . . i.j.k.& & & & & & U l..     ",
"    # m.& & & & n.o.p.q.r.W >.q.s.b.% & & & & & & ! t.u.v..     ",
"    . w.& & & & & & x.y.z.A.B.} j & & & & & & j f.C.R ... .     ",
"    . D.c.& & & & & & & & & & & & & & & & & [ E.F.G.. . . .     ",
"      . H.Z & & & & & & & & & & & & & & 8 ~.I.l |.. . . .       ",
"      . d J.| s & & & & & & & & & & 4 #.K.L.m . . . . . .       ",
"        . v.M.N.O.P.Q.5.* & j k.@.B.R.S.T.. . . . . . .         ",
"        . . . v ' U.V.6.*.W.H.X.Y.Z.`.. . . . . . . . .         ",
"          . . . . . . . .  +... . . . . . . . . . . .           ",
"            . . . . . . . . . . . . . . . . . . . .             ",
"              . . . . . . . . . . . . . . . . . .               ",
"                  . . . . . . . . . . . . . .                   ",
"                      . . . . . . . . . .                       ",
"                                                                ",
"                                                                "};
