/* XPM */
static char * C:\Users\Andrew\Documents\Crypto\Fedora Icon 16_xpm[] = {
"16 16 104 2",
"  	c None",
". 	c #090600",
"+ 	c #2A2104",
"@ 	c #372C06",
"# 	c #332906",
"$ 	c #282004",
"% 	c #191403",
"& 	c #000000",
"* 	c #4E3F09",
"= 	c #A68613",
"- 	c #BA9616",
"; 	c #9F8112",
"> 	c #866C0F",
", 	c #69550C",
"' 	c #1D1703",
") 	c #110D01",
"! 	c #AC8B14",
"~ 	c #E1B61B",
"{ 	c #CEA618",
"] 	c #D2AA18",
"^ 	c #D8AE1A",
"/ 	c #CEA718",
"( 	c #67530B",
"_ 	c #504009",
": 	c #B39015",
"< 	c #DCB21A",
"[ 	c #EEC01C",
"} 	c #F7C81E",
"| 	c #F2C41D",
"1 	c #AF8E14",
"2 	c #120E02",
"3 	c #141002",
"4 	c #67530C",
"5 	c #C8A218",
"6 	c #E4B81B",
"7 	c #EBBE1C",
"8 	c #F5C71D",
"9 	c #F0C21D",
"0 	c #BB9715",
"a 	c #9E7F12",
"b 	c #5A490A",
"c 	c #0C0A00",
"d 	c #1C1703",
"e 	c #886E10",
"f 	c #F4C51D",
"g 	c #E4B91B",
"h 	c #7A620D",
"i 	c #433607",
"j 	c #D6AD19",
"k 	c #715B0D",
"l 	c #64510B",
"m 	c #E6BA1B",
"n 	c #DEB41A",
"o 	c #755F0D",
"p 	c #A68713",
"q 	c #DFB41A",
"r 	c #CAA418",
"s 	c #856C0F",
"t 	c #292104",
"u 	c #151102",
"v 	c #6D580C",
"w 	c #F2C41C",
"x 	c #F5C61D",
"y 	c #836A0F",
"z 	c #F6C71D",
"A 	c #EABD1C",
"B 	c #524309",
"C 	c #0D0A01",
"D 	c #0D0B01",
"E 	c #0C0901",
"F 	c #070500",
"G 	c #261F03",
"H 	c #A08213",
"I 	c #D8AF19",
"J 	c #5D4B0A",
"K 	c #6F5A0D",
"L 	c #F3C51D",
"M 	c #80670E",
"N 	c #4B3D08",
"O 	c #624F0B",
"P 	c #A98914",
"Q 	c #DFB41B",
"R 	c #68550C",
"S 	c #010100",
"T 	c #403407",
"U 	c #AA8A14",
"V 	c #EEC11C",
"W 	c #E3B81B",
"X 	c #B19014",
"Y 	c #3B2F06",
"Z 	c #2E2505",
"` 	c #937711",
" .	c #DBB11A",
"..	c #E0B51B",
"+.	c #D5AC19",
"@.	c #B29015",
"#.	c #59490A",
"$.	c #0A0800",
"%.	c #030200",
"&.	c #251E04",
"*.	c #4A3C08",
"=.	c #564609",
"-.	c #312805",
";.	c #020200",
"                                ",
"          . + @ # $ %           ",
"      & & * = - ; > , ' &       ",
"    & & ) ! ~ { ] ^ / ( & &     ",
"    & & _ : / < [ } | 1 2 &     ",
"  & 3 4 5 6 7 8 } } 9 0 a b c   ",
"  d e < 7 f } } } g h i j j k   ",
"  l m n o p q r s t u v w x a   ",
"  y z A B C D E F G H [ z I J   ",
"  K L } n M N O P L } } Q R S   ",
"  T U V z } } } } L W X Y & &   ",
"    Z ` /  ...n +.@.#.$.& &     ",
"    & %.&.*.J =.-.;.& & & &     ",
"      & & & & & & & & & &       ",
"          & & & & & &           ",
"                                "};
