/* XPM */
static char * C:\Users\Andrew\Documents\Crypto\Fedora Icon 64_xpm[] = {
"64 64 310 2",
"  	c None",
". 	c #000000",
"+ 	c #0C0901",
"@ 	c #1A1502",
"# 	c #151002",
"$ 	c #040300",
"% 	c #020200",
"& 	c #342A05",
"* 	c #A28313",
"= 	c #DEB41A",
"- 	c #F7C81E",
"; 	c #F0C11D",
"> 	c #D9B01A",
", 	c #C6A117",
"' 	c #B18F15",
") 	c #947811",
"! 	c #715C0D",
"~ 	c #483A08",
"{ 	c #1B1602",
"] 	c #010100",
"^ 	c #090701",
"/ 	c #624F0B",
"( 	c #E9BD1C",
"_ 	c #F5C61D",
": 	c #EABE1C",
"< 	c #C7A017",
"[ 	c #7C640E",
"} 	c #241D04",
"| 	c #4E4009",
"1 	c #EEC01C",
"2 	c #F6C71D",
"3 	c #F3C51D",
"4 	c #E5B91B",
"5 	c #D5AD19",
"6 	c #C09B17",
"7 	c #967A11",
"8 	c #77600E",
"9 	c #5E4C0A",
"0 	c #3D3106",
"a 	c #141002",
"b 	c #020100",
"c 	c #1F1903",
"d 	c #EDC01C",
"e 	c #D1A919",
"f 	c #82690F",
"g 	c #59480A",
"h 	c #443607",
"i 	c #614E0B",
"j 	c #8C7210",
"k 	c #AE8D14",
"l 	c #C49F17",
"m 	c #735D0D",
"n 	c #120F02",
"o 	c #977A11",
"p 	c #EBBE1C",
"q 	c #C6A018",
"r 	c #947711",
"s 	c #64510B",
"t 	c #4D3E08",
"u 	c #B29015",
"v 	c #E4B81B",
"w 	c #CEA718",
"x 	c #332906",
"y 	c #EDBF1C",
"z 	c #C39D17",
"A 	c #8C7110",
"B 	c #9F8012",
"C 	c #DDB31A",
"D 	c #F3C41D",
"E 	c #5E4B0B",
"F 	c #050400",
"G 	c #9F8112",
"H 	c #F2C41D",
"I 	c #8B7010",
"J 	c #6A550C",
"K 	c #A88813",
"L 	c #E8BC1B",
"M 	c #987A11",
"N 	c #0F0C01",
"O 	c #C6A017",
"P 	c #DAB11A",
"Q 	c #927611",
"R 	c #AC8B14",
"S 	c #E6BA1B",
"T 	c #D0A919",
"U 	c #181302",
"V 	c #292104",
"W 	c #846B0F",
"X 	c #EABD1C",
"Y 	c #66520B",
"Z 	c #66530B",
"` 	c #9E8012",
" .	c #DBB21A",
"..	c #F4C51D",
"+.	c #F0C21D",
"@.	c #322905",
"#.	c #130F02",
"$.	c #9E8013",
"%.	c #3A2F06",
"&.	c #B49115",
"*.	c #B08F14",
"=.	c #68540C",
"-.	c #584709",
";.	c #917510",
">.	c #CDA618",
",.	c #EEC11C",
"'.	c #63500B",
").	c #433608",
"!.	c #DEB31A",
"~.	c #A78714",
"{.	c #473907",
"].	c #433607",
"^.	c #58470A",
"/.	c #8D7210",
"(.	c #E8BC1C",
"_.	c #937711",
":.	c #080600",
"<.	c #7B630E",
"[.	c #ECBF1C",
"}.	c #D2AA19",
"|.	c #BB9716",
"1.	c #BC9816",
"2.	c #CDA518",
"3.	c #261F04",
"4.	c #131001",
"5.	c #62500B",
"6.	c #D3AA19",
"7.	c #F5C71D",
"8.	c #B49215",
"9.	c #0B0901",
"0.	c #5E4B0A",
"a.	c #D0A718",
"b.	c #604E0A",
"c.	c #0A0800",
"d.	c #3B3006",
"e.	c #B59215",
"f.	c #F2C31D",
"g.	c #A58613",
"h.	c #7D660E",
"i.	c #C39E17",
"j.	c #4E3F08",
"k.	c #090800",
"l.	c #1E1803",
"m.	c #E1B61B",
"n.	c #987B12",
"o.	c #120F01",
"p.	c #453708",
"q.	c #E7BB1C",
"r.	c #282004",
"s.	c #352A06",
"t.	c #A88714",
"u.	c #D7AE1A",
"v.	c #745E0D",
"w.	c #2B2205",
"x.	c #392E06",
"y.	c #060500",
"z.	c #070500",
"A.	c #524209",
"B.	c #A88814",
"C.	c #453807",
"D.	c #090700",
"E.	c #241D03",
"F.	c #BA9716",
"G.	c #070600",
"H.	c #030300",
"I.	c #554509",
"J.	c #D6AD19",
"K.	c #C29D17",
"L.	c #765F0E",
"M.	c #211B03",
"N.	c #2C2405",
"O.	c #463807",
"P.	c #D7AE19",
"Q.	c #E2B71B",
"R.	c #D1AA19",
"S.	c #907411",
"T.	c #3F3307",
"U.	c #77610E",
"V.	c #6E590D",
"W.	c #0C0A01",
"X.	c #231C03",
"Y.	c #BF9B16",
"Z.	c #B29115",
"`.	c #463908",
" +	c #8E7311",
".+	c #967912",
"++	c #514109",
"@+	c #141102",
"#+	c #0E0C01",
"$+	c #C29C17",
"%+	c #A48413",
"&+	c #191403",
"*+	c #876D0F",
"=+	c #F1C31D",
"-+	c #977A12",
";+	c #1D1703",
">+	c #231C04",
",+	c #886E10",
"'+	c #C9A318",
")+	c #866C10",
"!+	c #4C3D08",
"~+	c #1B1603",
"{+	c #6C580C",
"]+	c #A98914",
"^+	c #1A1503",
"/+	c #7A620E",
"(+	c #0E0B01",
"_+	c #171302",
":+	c #5A490A",
"<+	c #6B570C",
"[+	c #3E3307",
"}+	c #5D4B0A",
"|+	c #D5AC19",
"1+	c #876D10",
"2+	c #120E02",
"3+	c #66520C",
"4+	c #030200",
"5+	c #211B04",
"6+	c #413407",
"7+	c #735E0D",
"8+	c #B89515",
"9+	c #C7A118",
"0+	c #80680F",
"a+	c #524309",
"b+	c #332905",
"c+	c #171202",
"d+	c #7D650E",
"e+	c #493B08",
"f+	c #8D7111",
"g+	c #0D0B01",
"h+	c #221B04",
"i+	c #100D01",
"j+	c #A68613",
"k+	c #9F8113",
"l+	c #957911",
"m+	c #EFC11D",
"n+	c #A78713",
"o+	c #251E04",
"p+	c #D3AB19",
"q+	c #443708",
"r+	c #967911",
"s+	c #5D4B0B",
"t+	c #0A0801",
"u+	c #534309",
"v+	c #C8A218",
"w+	c #EBBF1C",
"x+	c #896F10",
"y+	c #DCB21A",
"z+	c #453707",
"A+	c #514209",
"B+	c #8E7310",
"C+	c #67530C",
"D+	c #E8BB1C",
"E+	c #E4B91B",
"F+	c #010000",
"G+	c #755E0E",
"H+	c #CFA818",
"I+	c #181402",
"J+	c #312705",
"K+	c #B08E14",
"L+	c #493C08",
"M+	c #211A03",
"N+	c #080700",
"O+	c #151102",
"P+	c #201A03",
"Q+	c #A68614",
"R+	c #E9BC1B",
"S+	c #E0B51B",
"T+	c #B99616",
"U+	c #F4C61D",
"V+	c #C29C16",
"W+	c #544409",
"X+	c #5B4A0A",
"Y+	c #715B0D",
"Z+	c #BE9A16",
"`+	c #E7BB1B",
" @	c #110E01",
".@	c #5D4C0B",
"+@	c #C19C17",
"@@	c #B89416",
"#@	c #3C3107",
"$@	c #3B2F06",
"%@	c #65520C",
"&@	c #E3B81B",
"*@	c #D4AC19",
"=@	c #836A0F",
"-@	c #382D06",
";@	c #6B560C",
">@	c #D9AF19",
",@	c #E3B71B",
"'@	c #9D7F12",
")@	c #4F4009",
"!@	c #57460A",
"~@	c #342A06",
"{@	c #8A6F10",
"]@	c #E0B61B",
"^@	c #504109",
"/@	c #403307",
"(@	c #9A7C12",
"_@	c #060400",
":@	c #E7BA1B",
"<@	c #E1B71B",
"[@	c #977912",
"}@	c #443807",
"|@	c #6C570C",
"1@	c #DAB01A",
"2@	c #F0C21C",
"3@	c #352B06",
"4@	c #130F01",
"5@	c #1C1702",
"                                                                                                                                ",
"                                                                                                                                ",
"                                                                                                                                ",
"                                                          . . . . . .                                                           ",
"                                                . . . . . . . . . . . . . . . . .                                               ",
"                                          . . . . . . . . . . . . . . . . . . . . . .                                           ",
"                                      . . . . . . . . . . . . . . . . . . . . . . . . . .                                       ",
"                                  . . . . . . . . . . . + @ # $ . . . . . . . . . . . . . . .                                   ",
"                                . . . . . . . % & * = - - - - - - ; > , ' ) ! ~ { ] . . . . . . .                               ",
"                            . . . . . . . . ^ / ( - - - - - - - - - - - - - - _ : < [ } ] . . . . .                             ",
"                          . . . . . . . . . | 1 - - - - - - - - - - - 2 3 4 5 6 7 8 9 0 a b . . . . .                           ",
"                        . . . . . . . . . c 5 - - - - - - - - - - - d e ' f g h i j k l m n . . . . . .                         ",
"                      . . . . . . . . . $ o - - - - - - - - - - p q r s t 8 u v - - - - w x . . . . . . .                       ",
"                    . . . . . . . . . . & y - - - - - - - - p z A / g B C - - - - - - - D E F . . . . . . .                     ",
"                  . . . . . . . . . . . G - - - - - - - H w I / J K L - - - - - - - - - - M N . . . . . . . .                   ",
"                  . . . . . . . . . . . O - - - - - 2 P Q / m R S 2 - - - - - - - - - - - T U . . . . . . . . .                 ",
"                . . . . . . . . . . . V W - - - - X R Y Z `  ...- - - - - - - - - - - - - +.@.] . . . . . . . .                 ",
"              . . . . . . . . . . . #.$.%.&...1 *.=.-.;.>.,.- - - - - - - - - - - - - - - - '.$ . . . . . . . . .               ",
"              . . . . . . . . . . . ).!.~.t {.].^./.< (.2 - - - - - - - - - - - - - - - - - _.:.. . . . . . . . . .             ",
"            . . . . . . . . . . . . <.[.+.}.|.1.5 (.2 - - - - - - - - - - - - - - - - - - - 2.3.. . . . . . . . . .             ",
"            . . . . . . . . . . 4.5.6.7.- - 7.7.- - - - - - - - - - - - - - - - - - - - - - _ X 8.-.F . . . . . . . .           ",
"          . . . . . . . . . 9.0.a._ - - - - - - - - - - - - - - - - - - - - - - - - - - - - - D - 2 > b.c.. . . . . .           ",
"          . . . . . . . :.d.e.f.- - - - - - - - - - - - - - - - - - - - - - - - - - - - - H g.h.- - - D i.j.k.] . . .           ",
"          . . . . . % l.8 m.- - - - - - - - - - - - - - - - - - - - - - - - - - - - - 2 ( n.o.p.- - - - - q.Q r.$ . . .         ",
"        . . . . . F s.t...- - - - - - - - - - - - - - - - - - - - - - - - - - - - - f.u.v.#.. w.- - - - - - ..&.x.y.. .         ",
"        . . . . z.A.>.- - - - - - - - - - - - - - - - - - - - - - - - - - - - - 7.m.B.C.D.. . E.- - - - - - - - F.).G..         ",
"        . . . H.I.J.- - - - - - ,.,._ - - - - - - - - - - - - - - - - - - - - 1 K.L.M.. . . . ].- - - - - - - - - &.N.]         ",
"        . . . O.P.- - - - - - - 6.R Q.- - - - - - - - - - - - - - - - - - H R.S.T.D.. . . . . U.- - - - - - - - - 3 V.W..       ",
"        . . X.Y.- - - - - - - - Z.`. +1 - - - - - - - - - - - - - - - _ 6..+++@+. . . . . . #+$+- - - - - - - - - - %+&+.       ",
"      . . ] *+=+- - - - - - - - -+;+>+,+S - - - - - - - - - - - - D '+)+!+~+. . . . . . . $ {+d - - - - - - - - - - ]+^+.       ",
"      . . r.}.2 - - - - - - - - /+(+. _+:+' p - - - - - - - _ P.* <+[+n . . . . . . . . y.}+|+_ - - - - - - - - - - 1+2+.       ",
"      . . 3+q.- - - - - - - - - s H.. . 4+5+6+7+G 8+9+1.* 0+a+b+~+z.. . . . . . . . . c+d+P._ - - - - - - - - - - : e+$ .       ",
"      . . f+d - - - - - - - - - v.+ . . . . ] g+U l.h+c &+i+F . . . . . . . . . . % %.j+S _ - - - - - - - - - - - k+l.. .       ",
"      . . l+m+- - - - - - - - - n+o+. . . . . . . . . . . . . . . . . . . . . . ^+<.p++.2 - - - - - - - - - - - |+q+4+. .       ",
"      . . r+m+- - - - - - - - - p s+G.. . . . . . . . . . . . . . . . . . . t+u+v++.2 - - - - - - - - - - - - w+=.t+. . .       ",
"        . x+d - - - - - - - - - - y+z+% . . . . . . . . . . . . . . . . G.A+1.- - - - - - - - - - - - - - - =+B+o.. . . .       ",
"        . C+D+- - - - - - - - - - - E+/ c+$ . . . . . . . . . F+:.2+o+G+H+- - - - - - - - - - - - - - - 2 L /.I+. . . . .       ",
"        . J+C 2 - - - - - - - - - - - - K+L+M+n N+F F G.W.O+P+J+/ Q+R+- - - - - - - - - - - - - - - - _ S+x+@ . . . . .         ",
"        . $ T+U+- - - - - - - - - - - - - - V+x+i W+W+X+Y+Q Z+`+7.- - - - - - - - - - - - - - - - - U+p+L. @. . . . . .         ",
"        . . .@p - - - - - - - - - - - - - - - - - - - - - - - - - - - - - - - - - - - - - - - - - D +@X+z.. . . . . . .         ",
"          . i+@@- - - - - - - - - - - - - - - - - - - - - - - - - - - - - - - - - - - - - - - - 4 * #@. . . . . . . . .         ",
"          . . $@> - - - - - - - - - - - - - - - - - - - - - - - - - - - - - - - - - - - - - D F.%@O+. . . . . . . . .           ",
"          . . ] '.&@- - - - - - - - - - - - - - - - - - - - - - - - - - - - - - - - - - - *@=@-@] . . . . . . . . . .           ",
"            . . + ;@>@- - - - - - - - - - - - - - - - - - - - - - - - - - - - - - - - ,@'@)@ @. . . . . . . . . . . .           ",
"            . . . g+A+Z+- - - - - - - - - - - - - - - - - - - - - - - - - - - - - S ~.!@P+$ . . . . . . . . . . . .             ",
"              . . . z.~@{@]@- - - - - - - - - - - - - - - - - - - - - - - - - S '@^@P+z.. . . . . . . . . . . . . .             ",
"              . . . . % #./@(@Q.- - - - - - - - - - - - - - - - - - - - U+J.,+T.U _@. . . . . . . . . . . . . . .               ",
"                . . . . . ] :.c i k :@2 - - - - - - - - - - - - - - <@[@}@N y.] . . . . . . . . . . . . . . . .                 ",
"                  . . . . . . . . . :.%.|@.+F.1@1 - - - - 2@}.B.G+3@% . . . . . . . . . . . . . . . . . . . . .                 ",
"                  . . . . . . . . . . . . . . . . $ 4@5@(+. . . . . . . . . . . . . . . . . . . . . . . . . .                   ",
"                    . . . . . . . . . . . . . . . . . . . . . . . . . . . . . . . . . . . . . . . . . . . .                     ",
"                      . . . . . . . . . . . . . . . . . . . . . . . . . . . . . . . . . . . . . . . . . .                       ",
"                        . . . . . . . . . . . . . . . . . . . . . . . . . . . . . . . . . . . . . . . . .                       ",
"                          . . . . . . . . . . . . . . . . . . . . . . . . . . . . . . . . . . . . . .                           ",
"                            . . . . . . . . . . . . . . . . . . . . . . . . . . . . . . . . . . . .                             ",
"                              . . . . . . . . . . . . . . . . . . . . . . . . . . . . . . . . . .                               ",
"                                  . . . . . . . . . . . . . . . . . . . . . . . . . . . . . .                                   ",
"                                      . . . . . . . . . . . . . . . . . . . . . . . . . .                                       ",
"                                          . . . . . . . . . . . . . . . . . . . . . .                                           ",
"                                                . . . . . . . . . . . . . . . . .                                               ",
"                                                        . . . . . . . . .                                                       ",
"                                                                                                                                ",
"                                                                                                                                ",
"                                                                                                                                "};
